<?xml version="1.0" standalone="no"?>
<!DOCTYPE svg PUBLIC "-//W3C//DTD SVG 20010904//EN"
 "http://www.w3.org/TR/2001/REC-SVG-20010904/DTD/svg10.dtd">
<svg version="1.0" xmlns="http://www.w3.org/2000/svg"
 width="800.000000pt" height="800.000000pt" viewBox="0 0 800.000000 800.000000"
 preserveAspectRatio="xMidYMid meet">
<metadata>
Created by potrace 1.11, written by Peter Selinger 2001-2013
</metadata>
<g transform="translate(0.000000,800.000000) scale(0.100000,-0.100000)"
fill="#000000" stroke="none">
<path d="M3754 7953 c4 -10 -23 -13 -134 -14 -77 -1 -144 -3 -150 -4 -5 -1
-17 -3 -26 -4 -8 0 -13 -5 -10 -10 6 -9 -88 -21 -166 -21 -31 0 -55 -6 -64
-15 -10 -9 -34 -15 -63 -15 -31 0 -53 -5 -61 -15 -8 -10 -30 -15 -61 -15 -28
0 -49 -5 -49 -11 0 -5 -4 -7 -10 -4 -5 3 -10 2 -10 -3 0 -5 -27 -12 -60 -16
-33 -4 -58 -11 -55 -15 2 -5 -18 -11 -46 -15 -27 -4 -47 -11 -44 -15 6 -10
-28 -21 -67 -21 -17 0 -27 -5 -25 -12 1 -9 -14 -14 -45 -16 -34 -2 -48 -7 -48
-18 0 -9 -11 -14 -35 -14 -24 0 -35 -5 -35 -15 0 -10 -10 -15 -34 -15 -19 0
-41 -6 -48 -14 -8 -7 -29 -17 -46 -21 -18 -3 -32 -11 -32 -15 0 -5 -16 -12
-35 -16 -19 -3 -32 -10 -29 -15 3 -5 -9 -12 -26 -16 -18 -3 -34 -12 -37 -19
-3 -8 -18 -14 -34 -14 -19 0 -29 -5 -29 -15 0 -8 -8 -15 -18 -15 -11 0 -29 -9
-42 -20 -13 -11 -31 -20 -40 -20 -10 0 -20 -7 -24 -15 -3 -8 -15 -15 -26 -15
-12 0 -18 -5 -15 -10 4 -6 -7 -13 -24 -16 -17 -4 -31 -13 -31 -20 0 -9 -11
-14 -30 -14 -20 0 -30 -5 -30 -15 0 -8 -7 -15 -15 -15 -7 0 -18 -7 -22 -15 -5
-8 -19 -16 -32 -18 -12 -2 -26 -8 -29 -13 -4 -6 -15 -13 -25 -17 -10 -4 -15
-11 -12 -17 7 -11 -35 -31 -48 -23 -4 2 -7 -3 -7 -11 0 -9 -9 -16 -20 -16 -11
0 -20 -7 -20 -15 0 -8 -6 -15 -13 -15 -14 0 -50 -25 -75 -52 -9 -10 -22 -18
-30 -18 -7 0 -10 -5 -7 -11 4 -6 -2 -13 -14 -16 -12 -3 -21 -12 -21 -19 0 -8
-5 -14 -11 -14 -6 0 -22 -9 -36 -20 -14 -11 -29 -17 -34 -14 -5 3 -9 0 -9 -7
0 -15 -42 -59 -57 -59 -7 0 -13 -7 -13 -15 0 -8 -7 -15 -15 -15 -8 0 -15 -7
-15 -15 0 -8 -7 -15 -15 -15 -8 0 -15 -6 -15 -14 0 -7 -9 -16 -21 -19 -12 -3
-18 -10 -15 -16 4 -5 -3 -12 -14 -16 -11 -3 -20 -13 -20 -21 0 -8 -5 -12 -11
-9 -6 4 -13 -2 -16 -14 -3 -12 -12 -21 -19 -21 -8 0 -14 -7 -14 -15 0 -8 -7
-15 -15 -15 -8 0 -15 -7 -15 -15 0 -8 -7 -15 -15 -15 -8 0 -15 -7 -15 -16 0
-9 -9 -18 -20 -21 -11 -3 -17 -10 -14 -15 3 -5 -3 -12 -15 -15 -11 -3 -18 -10
-15 -15 3 -5 -3 -12 -15 -15 -15 -4 -21 -13 -21 -33 0 -20 -6 -29 -21 -33 -12
-3 -18 -10 -14 -16 3 -6 -1 -11 -9 -11 -9 0 -16 -7 -16 -16 0 -9 -9 -18 -20
-21 -11 -3 -17 -9 -14 -14 3 -5 -2 -12 -10 -15 -9 -3 -16 -12 -16 -20 0 -8 -5
-14 -11 -14 -5 0 -7 -5 -4 -10 3 -6 -1 -13 -9 -16 -9 -3 -16 -13 -16 -20 0 -8
-6 -17 -14 -20 -8 -3 -17 -17 -21 -32 -5 -19 -9 -22 -15 -13 -5 10 -10 4 -15
-18 -3 -17 -13 -31 -21 -31 -8 0 -14 -10 -14 -22 0 -12 -3 -18 -7 -14 -4 4
-13 -8 -19 -26 -6 -18 -16 -32 -22 -31 -5 1 -12 -11 -16 -28 -3 -17 -10 -28
-16 -24 -6 4 -10 -5 -10 -19 0 -16 -6 -26 -15 -26 -8 0 -15 -9 -15 -19 0 -11
-7 -26 -15 -35 -8 -8 -15 -21 -15 -28 0 -7 -9 -21 -20 -31 -11 -9 -20 -24 -20
-32 0 -8 -7 -15 -15 -15 -10 0 -15 -10 -15 -30 0 -18 -6 -33 -15 -36 -9 -4
-15 -19 -15 -35 0 -18 -5 -29 -14 -29 -8 0 -17 -13 -21 -30 -4 -16 -10 -30
-15 -30 -5 0 -12 -15 -15 -32 -4 -18 -13 -36 -19 -40 -12 -8 -13 -12 -15 -58
-1 -19 -6 -30 -16 -30 -11 0 -15 -11 -15 -36 0 -28 -3 -35 -15 -30 -12 4 -15
-2 -15 -28 0 -47 -10 -72 -21 -54 -6 8 -9 -4 -9 -34 0 -32 -5 -50 -16 -56 -8
-5 -18 -24 -21 -43 -3 -19 -10 -37 -15 -40 -6 -4 -13 -31 -16 -60 -3 -30 -11
-58 -17 -64 -7 -5 -15 -37 -17 -69 -3 -33 -10 -62 -16 -64 -7 -2 -12 -22 -12
-45 0 -22 -7 -48 -15 -57 -8 -9 -17 -48 -21 -98 -4 -45 -10 -79 -14 -77 -10 6
-20 -58 -20 -135 0 -39 -4 -60 -9 -52 -18 29 -21 -45 -21 -515 0 -409 2 -483
14 -490 11 -6 15 -30 16 -83 3 -100 11 -164 20 -149 4 6 11 -21 15 -62 4 -40
14 -79 21 -87 9 -9 14 -37 14 -79 0 -54 3 -64 15 -59 12 4 15 -5 15 -54 0 -41
4 -61 14 -67 9 -5 16 -26 17 -51 2 -24 9 -47 16 -51 7 -4 17 -27 22 -51 5 -25
10 -38 11 -30 3 29 19 -24 19 -67 1 -31 5 -43 16 -43 10 0 15 -11 15 -35 0
-26 3 -33 15 -29 12 5 15 -4 15 -45 0 -38 4 -51 14 -51 9 0 16 -12 18 -32 2
-18 8 -32 14 -31 7 1 15 -13 18 -33 4 -19 11 -32 17 -29 5 4 10 1 10 -4 1 -6
3 -15 4 -21 1 -5 3 -17 4 -25 0 -8 8 -15 16 -15 10 0 15 -10 15 -30 0 -20 5
-30 15 -30 10 0 15 -11 15 -35 0 -24 5 -35 14 -35 8 0 17 -14 21 -30 4 -17 11
-28 16 -24 5 3 9 2 10 -3 3 -35 12 -59 24 -66 8 -4 15 -15 15 -22 0 -8 7 -15
15 -15 10 0 15 -10 15 -30 0 -20 5 -30 15 -30 8 0 15 -9 15 -20 0 -11 7 -20
15 -20 10 0 15 -10 15 -30 0 -20 5 -30 15 -30 8 0 15 -6 15 -13 0 -7 9 -20 20
-30 11 -9 20 -23 20 -31 0 -8 7 -16 15 -20 8 -3 15 -12 15 -21 0 -8 7 -15 15
-15 8 0 15 -7 15 -17 0 -17 4 -22 65 -84 19 -20 35 -41 35 -46 0 -6 7 -13 15
-17 8 -3 15 -9 14 -13 -3 -19 3 -47 8 -35 7 17 23 5 23 -18 0 -13 5 -17 15
-14 13 6 20 -6 16 -28 0 -5 6 -8 14 -8 9 0 19 -10 24 -22 5 -13 12 -22 17 -21
5 1 8 -5 8 -13 -1 -8 7 -14 17 -14 11 0 19 -7 19 -15 0 -8 7 -15 15 -15 8 0
15 -7 15 -15 0 -8 6 -15 14 -15 7 0 16 -9 19 -20 3 -11 11 -19 19 -18 7 2 12
-2 11 -9 -2 -7 6 -17 17 -23 11 -6 18 -15 15 -21 -4 -5 3 -9 14 -9 12 0 21 -7
21 -15 0 -8 7 -15 15 -15 8 0 15 -6 15 -14 0 -7 9 -16 21 -19 12 -3 18 -10 14
-16 -3 -6 1 -11 10 -11 9 0 19 -9 22 -20 3 -11 12 -20 19 -20 8 0 14 -7 14
-15 0 -8 9 -15 20 -15 11 0 20 -4 20 -10 0 -5 11 -12 25 -16 14 -3 25 -12 25
-20 0 -8 6 -14 14 -14 7 0 16 -9 19 -20 3 -11 12 -20 21 -20 9 0 16 -7 16 -15
0 -8 7 -15 15 -15 8 0 15 -7 15 -15 0 -10 10 -15 30 -15 19 0 30 -5 30 -14 0
-7 9 -16 21 -19 12 -3 18 -10 14 -16 -3 -6 0 -11 8 -11 8 0 24 -9 37 -20 13
-11 29 -20 37 -20 7 0 13 -7 13 -15 0 -10 10 -15 30 -15 20 0 30 -5 30 -15 0
-8 7 -15 15 -15 8 0 15 -6 15 -14 0 -8 15 -17 35 -20 20 -4 33 -11 30 -17 -4
-5 3 -9 15 -9 11 0 23 -6 26 -14 3 -8 19 -18 35 -21 16 -4 29 -10 29 -15 0 -5
14 -11 30 -15 17 -4 30 -13 30 -21 0 -9 11 -14 30 -14 20 0 30 -5 30 -15 0 -8
9 -15 19 -15 11 0 26 -6 33 -13 7 -8 26 -17 41 -21 15 -3 25 -10 22 -15 -6
-11 18 -21 51 -21 15 0 24 -6 24 -15 0 -10 11 -15 35 -15 24 0 35 -5 35 -15 0
-10 11 -15 35 -15 24 0 35 -5 35 -15 0 -14 26 -20 78 -18 6 1 12 -5 12 -13 0
-9 12 -14 34 -14 19 0 41 -6 48 -13 7 -8 27 -17 43 -21 16 -4 32 -12 36 -17 3
-5 30 -12 60 -16 30 -3 58 -12 62 -19 4 -8 23 -14 42 -14 18 0 40 -7 49 -15 9
-10 34 -15 70 -15 32 0 60 -5 68 -13 7 -8 38 -17 68 -21 30 -4 58 -12 61 -18
7 -10 48 -15 179 -19 53 -2 54 -2 15 -8 l-40 -6 40 -8 c22 -4 84 -7 138 -7 79
0 97 -3 97 -15 0 -9 9 -15 25 -15 14 0 25 5 25 10 0 6 5 10 11 10 5 0 7 -5 4
-10 -4 -7 100 -10 319 -10 290 1 357 6 314 23 -7 3 44 6 114 6 133 1 178 8
142 22 -11 5 13 8 61 9 96 1 158 11 156 25 -1 6 25 11 56 13 34 2 61 8 65 16
4 8 30 14 65 15 39 1 60 6 66 16 5 10 24 15 52 15 32 0 45 4 45 14 0 9 16 15
46 19 26 2 49 9 53 15 3 5 27 13 53 17 26 4 46 11 43 15 -6 9 29 20 68 20 15
0 27 6 27 13 0 8 15 14 38 15 20 2 42 9 48 17 6 8 20 15 32 15 11 0 22 5 24
11 2 6 22 15 43 18 22 4 39 12 38 18 -1 6 13 14 32 17 19 4 35 11 35 16 0 4
13 11 29 15 16 3 32 13 35 21 3 8 19 14 36 14 20 0 30 5 30 15 0 10 10 15 30
15 19 0 30 5 30 14 0 8 14 18 31 21 23 5 28 9 18 16 -11 7 -10 9 4 10 9 1 22
3 27 4 6 1 17 3 26 4 8 0 12 5 9 11 -3 5 6 12 20 16 14 3 25 12 25 20 0 9 11
14 30 14 20 0 30 5 30 15 0 8 9 15 20 15 11 0 20 7 20 15 0 10 10 15 30 15 20
0 30 5 30 15 0 8 7 15 15 15 8 0 15 7 15 15 0 8 7 15 15 15 9 0 18 6 21 14 3
8 19 19 35 25 16 5 29 15 29 20 0 6 7 11 15 11 8 0 15 7 15 15 0 8 9 15 20 15
10 0 24 9 30 20 6 11 17 20 25 20 8 0 15 7 15 15 0 8 9 15 20 15 11 0 20 7 20
15 0 8 7 15 15 15 8 0 15 7 15 15 0 8 9 15 20 15 11 0 20 7 20 15 0 8 7 15 15
15 8 0 15 6 15 14 0 8 12 17 27 21 21 5 24 8 12 16 -11 7 -11 9 4 9 9 0 25 9
34 20 10 11 23 20 30 20 7 0 13 7 13 15 0 8 6 15 14 15 7 0 16 9 19 21 3 12
10 18 15 15 5 -3 12 3 15 14 3 11 13 20 22 20 9 0 13 5 10 11 -4 6 2 13 14 16
12 3 21 12 21 19 0 8 7 14 15 14 8 0 15 7 15 15 0 8 5 15 10 15 6 0 10 7 10
15 0 8 5 15 10 15 6 0 10 8 10 18 0 13 2 14 9 3 7 -10 11 -5 16 18 4 17 11 29
16 25 5 -3 12 2 15 10 3 9 12 16 20 16 8 0 14 9 14 20 0 11 7 20 15 20 8 0 15
7 15 15 0 9 7 18 15 21 8 4 15 12 15 20 0 8 7 14 15 14 8 0 15 7 15 15 0 8 9
23 20 32 11 10 20 23 20 30 0 7 7 13 15 13 8 0 15 9 15 20 0 11 6 20 13 20 8
0 7 4 -3 10 -13 8 -13 10 1 10 9 0 19 9 22 20 3 11 12 20 21 20 9 0 16 6 16
14 0 8 7 16 15 20 8 3 15 15 15 26 0 11 7 23 15 26 8 4 15 15 15 25 0 10 6 18
13 17 7 -2 13 9 15 25 2 15 9 27 18 27 8 0 14 9 14 20 0 11 6 20 14 20 8 0 17
15 20 35 4 19 12 34 17 32 6 -1 13 11 15 27 1 16 7 32 13 35 5 3 13 19 16 34
4 15 13 27 21 27 9 0 14 11 14 30 0 20 5 30 15 30 9 0 15 9 15 24 0 14 7 31
15 39 7 8 17 26 20 40 4 14 13 28 21 31 8 3 14 19 14 36 0 19 5 29 13 28 7 -2
13 11 15 35 2 24 8 37 18 37 10 0 14 12 14 41 0 32 3 40 14 36 11 -5 16 4 18
36 2 27 7 41 16 39 8 -1 12 11 12 37 0 45 8 73 20 66 4 -2 10 14 13 37 3 22
10 44 16 47 5 4 13 30 17 60 4 30 13 55 20 58 9 3 14 23 14 58 0 34 5 55 13
58 8 3 14 25 16 58 2 59 9 91 22 99 4 3 11 37 15 75 4 39 10 72 14 75 5 3 11
50 15 105 7 114 10 135 24 190 12 45 15 725 4 765 l-7 25 -7 -30 c-4 -20 -7
-2 -8 51 -2 116 -12 208 -22 192 -6 -8 -9 1 -10 27 -1 22 -3 49 -4 60 -1 11
-2 44 -3 73 -1 29 -6 51 -11 48 -12 -8 -21 18 -21 64 0 24 -5 40 -15 44 -11 4
-15 21 -15 65 0 36 -5 65 -13 73 -8 7 -16 33 -20 57 -3 24 -10 47 -15 50 -5 3
-12 26 -16 49 -3 24 -13 51 -21 59 -8 8 -15 23 -15 34 0 11 -7 27 -15 35 -8 9
-15 31 -15 50 0 24 -5 34 -15 34 -11 0 -15 12 -15 45 0 33 -4 45 -15 45 -13 0
-21 31 -16 63 0 4 -6 7 -14 7 -10 0 -15 10 -15 30 0 18 -6 33 -15 36 -8 3 -17
21 -21 40 -3 19 -10 31 -15 28 -5 -3 -12 8 -15 25 -4 17 -13 31 -20 31 -9 0
-14 12 -14 35 0 24 -5 35 -15 35 -8 0 -15 9 -15 19 0 11 -7 26 -15 34 -7 8
-17 26 -21 41 -3 14 -10 23 -15 21 -5 -3 -11 5 -15 19 -3 13 -12 27 -20 30 -8
3 -14 17 -14 31 0 16 -6 25 -15 25 -10 0 -15 10 -15 30 0 20 -5 30 -15 30 -8
0 -15 7 -15 15 0 9 -6 18 -14 21 -8 3 -18 18 -21 34 -3 16 -13 31 -21 34 -8 3
-14 12 -14 21 0 8 -5 14 -12 12 -12 -2 -14 3 -17 38 0 8 -8 15 -16 15 -8 0
-15 9 -15 20 0 11 -7 20 -15 20 -8 0 -15 7 -15 15 0 8 -6 15 -14 15 -8 0 -17
14 -21 30 -4 17 -10 28 -15 25 -5 -3 -11 4 -15 15 -3 11 -13 20 -21 20 -8 0
-14 9 -14 20 0 11 -7 20 -15 20 -8 0 -15 7 -15 15 0 8 -7 15 -15 15 -8 0 -15
5 -15 12 0 6 -20 31 -45 55 -25 24 -40 43 -33 44 7 0 3 4 -9 9 -13 5 -23 16
-23 25 0 8 -4 15 -10 15 -5 0 -10 7 -10 15 0 8 -6 15 -13 15 -7 0 -24 13 -37
30 -14 16 -31 29 -37 30 -7 0 -13 7 -13 15 0 8 -7 15 -15 15 -8 0 -15 9 -15
20 0 11 -7 20 -15 20 -8 0 -15 7 -15 15 0 8 -6 15 -13 15 -7 0 -20 9 -30 20
-9 11 -23 20 -31 20 -8 0 -16 7 -20 15 -3 8 -13 15 -21 15 -9 0 -13 5 -10 11
4 6 -2 13 -14 16 -12 3 -21 12 -21 19 0 8 -7 14 -15 14 -8 0 -15 7 -15 15 0 8
-9 15 -20 15 -11 0 -20 6 -20 14 0 8 -11 17 -25 20 -14 4 -23 11 -20 16 3 5
-6 12 -20 16 -14 3 -25 12 -25 20 0 8 -7 14 -15 14 -8 0 -15 7 -15 15 0 8 -9
15 -20 15 -11 0 -20 5 -20 11 0 5 -4 7 -10 4 -5 -3 -10 -1 -10 4 0 6 -9 11
-20 11 -11 0 -20 6 -20 14 0 8 -12 17 -27 21 -19 4 -23 9 -14 15 10 5 5 10
-17 15 -17 3 -33 13 -36 21 -3 8 -18 14 -35 14 -23 0 -29 4 -25 15 4 10 0 15
-15 15 -12 0 -21 6 -21 15 0 10 -10 15 -30 15 -20 0 -30 5 -30 15 0 8 -9 15
-19 15 -11 0 -27 7 -35 16 -15 14 -31 21 -61 23 -5 1 -4 5 4 10 11 7 5 11 -22
16 -22 4 -37 13 -37 21 0 9 -11 14 -30 14 -20 0 -30 5 -30 15 0 10 -10 15 -30
15 -17 0 -33 6 -36 14 -3 8 -19 18 -35 21 -16 4 -29 11 -29 15 0 5 -16 12 -35
16 -19 3 -33 10 -30 14 6 9 -30 20 -69 20 -21 0 -27 4 -22 15 4 12 -3 15 -32
16 -20 1 -40 1 -44 0 -13 -2 -9 17 5 22 6 3 -10 6 -36 6 -31 1 -50 6 -53 15
-3 8 -27 16 -55 20 -27 4 -47 11 -44 16 3 5 -17 12 -44 16 -28 4 -49 10 -46
14 6 9 -44 20 -90 20 -20 0 -35 6 -39 15 -3 10 -19 15 -47 15 -22 0 -55 6 -72
14 -18 8 -56 17 -86 20 -30 3 -57 10 -61 15 -5 9 -85 18 -190 20 -23 1 -30 4
-22 10 20 12 -63 21 -205 21 -80 0 -122 4 -118 10 8 13 8 13 -253 15 -181 1
-222 -1 -218 -12z m986 -1858 c0 -11 12 -15 45 -15 32 0 45 -4 45 -14 0 -7 9
-16 21 -19 12 -3 18 -10 14 -16 -3 -6 1 -11 10 -11 9 0 19 -9 22 -20 3 -11 12
-20 19 -20 9 0 14 -11 14 -30 0 -20 5 -30 15 -30 12 0 15 -18 15 -101 0 -86
-2 -100 -15 -95 -12 4 -15 -4 -15 -40 0 -30 -5 -46 -15 -50 -8 -4 -15 -16 -15
-28 0 -37 -12 -69 -20 -56 -5 7 -11 -9 -15 -39 -4 -28 -10 -49 -15 -46 -8 5
-20 -28 -20 -59 0 -10 -7 -24 -15 -30 -8 -6 -15 -30 -17 -53 -1 -28 -7 -43
-15 -43 -8 0 -13 -13 -13 -34 0 -19 -6 -41 -14 -48 -7 -8 -17 -29 -21 -46 -3
-18 -10 -32 -15 -32 -4 0 -11 -20 -14 -44 -4 -24 -13 -47 -21 -50 -9 -3 -15
-18 -15 -35 0 -16 -7 -36 -15 -45 -8 -8 -15 -31 -15 -50 0 -25 -5 -36 -14 -36
-10 0 -16 -14 -18 -42 -2 -28 -7 -42 -15 -41 -8 2 -13 -8 -13 -25 0 -41 -11
-76 -20 -62 -4 6 -10 -11 -14 -39 -4 -28 -11 -51 -16 -51 -5 0 -13 -18 -16
-41 -4 -22 -13 -43 -20 -46 -8 -3 -14 -20 -14 -38 0 -20 -6 -35 -15 -39 -10
-3 -15 -19 -15 -46 0 -27 -4 -40 -14 -40 -9 0 -16 -18 -20 -50 -4 -28 -11 -48
-16 -45 -5 3 -12 -17 -16 -44 -4 -29 -11 -49 -18 -48 -6 1 -12 -15 -14 -35 -2
-25 -8 -38 -18 -38 -10 0 -14 -13 -14 -45 0 -33 -4 -45 -15 -45 -11 0 -15 -11
-15 -40 0 -27 -5 -43 -15 -46 -8 -4 -15 -18 -15 -34 0 -38 -11 -65 -20 -50 -4
6 -10 -9 -13 -35 -4 -25 -14 -53 -22 -61 -8 -9 -15 -28 -15 -44 0 -16 -7 -30
-15 -34 -9 -3 -15 -18 -15 -40 0 -19 -7 -41 -15 -50 -8 -8 -15 -28 -15 -44 0
-17 -6 -32 -14 -35 -7 -3 -17 -26 -20 -51 -4 -26 -11 -44 -16 -41 -5 3 -12
-17 -16 -45 -4 -29 -10 -46 -14 -40 -8 13 -20 -20 -20 -57 0 -14 -6 -23 -15
-23 -11 0 -15 -12 -15 -45 0 -33 -4 -45 -15 -45 -11 0 -15 -11 -15 -40 0 -29
-4 -40 -15 -40 -11 0 -15 -11 -15 -40 0 -26 -5 -43 -14 -46 -8 -3 -18 -24 -21
-47 -4 -22 -14 -47 -21 -55 -8 -7 -14 -27 -14 -43 0 -17 -6 -32 -15 -35 -9 -4
-15 -19 -15 -40 0 -23 -5 -34 -14 -34 -11 0 -16 -14 -18 -47 -2 -32 -7 -47
-15 -46 -9 2 -13 -9 -13 -31 0 -19 -7 -41 -15 -49 -8 -8 -17 -33 -21 -55 -3
-23 -13 -43 -20 -46 -8 -3 -14 -20 -14 -41 0 -24 -4 -35 -15 -35 -11 0 -15
-12 -15 -46 0 -37 -3 -45 -15 -40 -12 4 -15 -2 -15 -28 0 -40 -9 -68 -20 -61
-4 2 -11 -14 -14 -37 -5 -29 -10 -38 -15 -29 -6 10 -11 5 -16 -18 -3 -17 -13
-31 -21 -31 -8 0 -14 -6 -14 -14 0 -8 -14 -17 -30 -21 -17 -4 -28 -11 -25 -15
3 -5 -17 -12 -45 -16 -34 -4 -47 -10 -38 -15 8 -5 -14 -9 -55 -9 -38 0 -66 4
-63 9 3 5 -17 11 -44 15 -34 5 -50 11 -50 21 0 8 -7 15 -15 15 -8 0 -15 7 -15
15 0 8 -9 15 -20 15 -11 0 -20 6 -20 14 0 8 -7 16 -15 20 -9 3 -15 18 -15 36
0 19 -5 29 -12 27 -10 -1 -14 27 -16 111 -2 95 0 112 13 112 10 0 15 10 15 34
0 19 6 41 14 49 8 8 18 30 21 50 4 20 11 35 15 32 9 -5 20 29 20 61 0 12 7 24
15 28 10 4 15 20 15 51 0 33 4 45 15 45 10 0 15 10 15 29 0 16 6 36 14 43 7 8
17 33 21 56 4 23 10 40 15 37 9 -6 20 29 20 70 0 20 3 26 9 17 11 -19 21 7 22
61 0 23 3 36 6 30 5 -14 24 -18 22 -5 -1 4 -1 24 0 45 1 26 6 37 16 37 11 0
15 11 15 40 0 27 5 43 15 46 9 4 15 19 16 38 0 17 4 40 9 51 l9 20 1 -20 c1
-11 7 2 12 30 5 27 14 52 19 56 6 3 13 25 16 48 4 25 11 41 19 41 9 0 14 11
14 31 0 17 7 37 15 45 8 9 15 31 15 50 0 24 5 34 15 34 10 0 15 10 15 28 0 38
11 73 20 67 5 -3 12 15 15 39 4 25 13 47 21 50 8 3 14 20 14 41 0 24 4 35 15
35 11 0 15 12 15 45 0 33 4 45 15 45 10 0 15 10 15 29 0 37 10 62 21 55 5 -3
9 7 9 23 0 38 11 74 20 68 4 -2 10 14 13 37 3 22 11 44 17 48 6 4 14 26 17 49
4 25 11 41 19 41 9 0 14 12 14 33 0 18 5 38 11 44 7 7 15 29 19 50 3 21 11 37
17 36 6 -1 13 19 16 45 3 25 10 48 16 50 6 2 14 21 17 43 4 21 10 36 14 34 11
-7 20 20 20 56 0 19 5 29 14 29 11 0 16 14 18 48 2 26 8 46 13 44 6 -1 12 14
15 35 3 23 10 37 18 36 7 -2 12 9 12 30 0 42 10 78 20 72 4 -2 10 13 13 35 3
22 12 47 21 55 9 9 16 31 16 50 0 20 6 35 15 39 9 3 15 18 15 36 0 18 6 33 15
36 10 4 15 20 15 45 0 26 5 42 15 45 8 4 15 18 16 33 0 27 16 73 19 56 3 -18
18 40 19 75 1 23 4 31 10 22 11 -17 21 7 21 49 0 21 4 27 15 23 12 -5 15 4 15
45 0 48 12 67 23 39 3 -7 6 10 6 39 1 50 14 77 24 51 3 -7 6 8 6 35 1 34 5 47
15 47 8 0 17 13 21 29 3 16 13 32 21 35 9 3 12 11 9 17 -4 6 2 13 14 16 12 3
21 12 21 19 0 8 9 14 20 14 11 0 20 7 20 15 0 10 10 15 29 15 16 0 34 7 41 15
9 11 32 15 81 15 55 0 69 -3 69 -15z m-2090 -669 c0 -10 13 -16 38 -18 23 -2
36 -8 35 -15 -3 -11 25 -18 43 -10 4 1 11 -8 15 -21 5 -13 14 -20 20 -17 6 4
13 -2 16 -14 3 -12 9 -21 13 -21 5 0 11 -13 15 -30 4 -17 13 -30 21 -30 12 0
15 -19 13 -110 -1 -82 -5 -110 -14 -110 -7 0 -16 -16 -19 -35 -4 -21 -13 -35
-21 -35 -8 0 -15 -4 -15 -10 0 -12 -68 -80 -80 -80 -6 0 -10 -9 -10 -20 0 -11
-7 -20 -15 -20 -8 0 -15 -7 -15 -15 0 -8 -9 -15 -20 -15 -11 0 -19 -3 -18 -7
3 -10 -75 -88 -84 -85 -5 1 -8 -7 -8 -18 0 -11 -7 -20 -15 -20 -8 0 -15 -7
-15 -15 0 -8 -9 -15 -20 -15 -11 0 -20 -4 -20 -10 0 -12 -68 -80 -80 -80 -6 0
-10 -9 -10 -20 0 -11 -7 -20 -15 -20 -8 0 -15 -7 -15 -15 0 -8 -9 -15 -20 -15
-11 0 -19 -3 -18 -7 3 -10 -70 -83 -82 -83 -6 0 -10 -9 -10 -20 0 -11 -7 -20
-15 -20 -8 0 -15 -7 -15 -15 0 -8 -9 -15 -20 -15 -11 0 -20 -4 -20 -10 0 -12
-68 -80 -80 -80 -6 0 -10 -9 -10 -20 0 -11 -7 -20 -15 -20 -8 0 -15 -7 -15
-15 0 -8 -9 -15 -20 -15 -11 0 -20 -6 -20 -12 -1 -7 -14 -24 -30 -38 -17 -13
-30 -30 -30 -37 0 -7 -7 -13 -15 -13 -8 0 -15 -7 -15 -15 0 -8 7 -15 15 -15 8
0 15 -7 15 -15 0 -8 9 -15 21 -15 12 0 17 -4 14 -11 -4 -6 2 -13 14 -16 12 -3
21 -12 21 -19 0 -8 7 -14 15 -14 8 0 15 -7 15 -15 0 -8 7 -15 15 -15 8 0 15
-9 15 -20 0 -11 7 -20 15 -20 8 0 15 -7 15 -15 0 -8 5 -15 10 -15 6 0 24 -13
40 -30 16 -17 34 -30 40 -30 5 0 10 -9 10 -20 0 -11 7 -20 15 -20 8 0 15 -7
15 -15 0 -8 7 -15 15 -15 8 0 15 -7 15 -15 0 -8 9 -15 20 -15 13 0 18 -5 14
-15 -4 -10 0 -15 15 -15 12 0 21 -6 21 -15 0 -8 7 -15 15 -15 8 0 15 -7 15
-15 0 -8 7 -15 15 -15 8 0 15 -9 15 -20 0 -11 7 -20 15 -20 8 0 15 -7 15 -15
0 -8 5 -15 11 -15 15 0 89 -74 89 -89 0 -6 7 -11 15 -11 8 0 15 -7 15 -15 0
-8 7 -15 15 -15 8 0 15 -7 15 -15 0 -8 7 -15 15 -15 8 0 15 -7 15 -15 0 -8 9
-15 20 -15 11 0 20 -7 20 -15 0 -8 7 -15 15 -15 8 0 15 -7 15 -15 0 -8 7 -15
15 -15 8 0 15 -9 15 -20 0 -11 7 -20 15 -20 8 0 15 -7 15 -15 0 -8 9 -15 20
-15 11 0 20 -6 20 -14 0 -8 7 -16 15 -20 8 -3 15 -10 15 -16 0 -6 7 -18 15
-26 9 -10 15 -34 15 -65 0 -38 4 -49 16 -49 11 0 14 -8 12 -32 -2 -20 -8 -32
-15 -30 -9 1 -13 -13 -13 -48 0 -38 -4 -50 -15 -50 -8 0 -15 -9 -15 -20 0 -11
-9 -28 -20 -37 -11 -10 -20 -23 -20 -30 0 -8 -12 -13 -30 -13 -20 0 -30 -5
-30 -15 0 -10 -10 -15 -30 -15 -20 0 -30 -5 -30 -15 0 -12 -16 -15 -85 -15
-69 0 -85 3 -85 15 0 10 -11 15 -35 15 -22 0 -34 4 -33 12 2 7 -7 14 -20 16
-12 2 -27 12 -33 23 -5 11 -14 17 -20 14 -5 -4 -9 -1 -9 6 0 15 -42 59 -57 59
-7 0 -13 7 -13 15 0 8 -7 15 -15 15 -8 0 -15 7 -15 15 0 8 -7 15 -15 15 -8 0
-15 6 -15 13 0 15 -44 57 -59 57 -7 0 -9 5 -6 11 4 6 -2 13 -14 16 -12 3 -21
12 -21 19 0 8 -7 14 -15 14 -8 0 -15 7 -15 15 0 8 -6 15 -14 15 -7 0 -16 9
-19 21 -3 12 -10 18 -16 14 -6 -3 -11 0 -11 7 0 16 -43 58 -59 58 -6 0 -11 7
-11 15 0 8 -7 15 -15 15 -8 0 -15 7 -15 15 0 8 -6 15 -14 15 -7 0 -16 9 -19
21 -3 12 -10 18 -16 14 -6 -3 -11 1 -11 10 0 9 -9 19 -20 22 -11 3 -17 10 -14
15 3 5 -3 12 -15 15 -12 3 -21 12 -21 19 0 8 -7 14 -15 14 -8 0 -15 7 -15 15
0 8 -6 15 -14 15 -7 0 -16 9 -19 21 -3 12 -10 18 -16 14 -6 -3 -11 0 -11 7 0
16 -43 58 -59 58 -6 0 -11 7 -11 15 0 8 -7 15 -15 15 -8 0 -15 7 -15 15 0 8
-7 15 -15 15 -8 0 -15 6 -15 13 0 15 -44 57 -59 57 -7 0 -9 5 -6 11 4 6 -2 13
-14 16 -12 3 -21 12 -21 19 0 8 -7 14 -15 14 -8 0 -15 7 -15 15 0 8 -7 15 -15
15 -8 0 -15 5 -15 11 0 15 -74 89 -89 89 -6 0 -11 7 -11 15 0 8 -7 15 -15 15
-8 0 -15 7 -15 15 0 8 -6 15 -14 15 -7 0 -16 9 -19 21 -3 12 -10 18 -16 14 -6
-3 -11 1 -11 10 0 9 -9 19 -20 22 -11 3 -17 10 -14 15 3 5 -3 12 -15 15 -12 3
-21 12 -21 19 0 8 -7 14 -15 14 -8 0 -15 9 -15 20 0 11 -4 20 -9 20 -5 0 -4
11 2 25 7 14 18 25 25 25 6 0 12 7 12 16 0 9 9 18 20 21 11 3 20 12 20 19 0 8
7 14 15 14 8 0 15 7 15 15 0 8 7 15 15 15 8 0 15 7 15 15 0 8 7 15 15 15 9 0
15 9 15 21 0 15 5 19 15 15 9 -3 15 0 15 10 0 9 9 18 19 21 12 3 17 11 14 19
-3 9 2 14 16 14 12 0 21 6 21 15 0 8 7 15 15 15 8 0 15 7 15 15 0 8 7 15 15
15 8 0 15 7 15 15 0 8 7 15 15 15 8 0 15 5 15 11 0 14 47 59 61 59 5 0 9 7 9
15 0 8 7 15 15 15 8 0 15 7 15 15 0 8 7 15 15 15 9 0 15 9 15 21 0 14 5 19 14
16 8 -3 16 2 19 14 3 10 12 19 21 19 10 0 13 6 10 15 -4 10 0 15 15 15 12 0
21 6 21 15 0 8 7 15 15 15 8 0 15 7 15 15 0 8 7 15 15 15 8 0 15 7 15 15 0 8
7 15 15 15 8 0 15 7 15 16 0 9 9 18 20 21 11 3 20 12 20 19 0 8 7 14 15 14 8
0 15 7 15 15 0 8 7 15 15 15 8 0 15 7 15 15 0 8 7 15 15 15 8 0 15 9 15 21 0
11 4 18 9 14 6 -3 15 4 21 15 6 11 17 20 25 20 8 0 15 7 15 15 0 8 7 15 15 15
8 0 15 7 15 15 0 8 7 15 15 15 8 0 15 7 15 15 0 8 7 15 15 15 8 0 15 7 15 15
0 8 7 15 15 15 8 0 15 7 15 16 0 9 9 18 20 21 11 3 20 12 20 19 0 8 7 14 15
14 8 0 15 7 15 15 0 8 7 15 15 15 8 0 15 7 15 15 0 8 7 15 15 15 8 0 15 7 15
15 0 8 6 15 14 15 7 0 16 9 19 20 3 11 12 20 21 20 9 0 16 7 16 15 0 8 7 15
15 15 8 0 15 7 15 15 0 8 7 15 15 15 8 0 15 7 15 15 0 8 7 15 15 15 8 0 15 6
15 14 0 8 14 17 30 21 17 4 30 13 30 21 0 9 12 14 36 14 19 0 42 7 50 15 21
20 104 21 104 1z m2830 -1 c0 -11 12 -15 45 -15 32 0 45 -4 45 -14 0 -8 14
-17 30 -21 17 -4 28 -11 24 -16 -3 -5 3 -12 12 -16 22 -8 54 -40 54 -53 0 -5
9 -10 20 -10 11 0 20 -7 20 -15 0 -8 7 -15 15 -15 8 0 15 -9 15 -20 0 -11 3
-19 8 -18 9 3 87 -75 84 -84 -1 -5 7 -8 18 -8 11 0 20 -7 20 -15 0 -8 7 -15
15 -15 8 0 15 -9 15 -20 0 -11 7 -20 15 -20 8 0 15 -7 15 -15 0 -8 7 -15 15
-15 8 0 15 -7 15 -15 0 -8 7 -15 15 -15 8 0 15 -7 15 -15 0 -8 9 -15 20 -15
11 0 20 -7 20 -15 0 -8 7 -15 15 -15 8 0 15 -9 15 -20 0 -11 3 -19 8 -18 9 3
87 -75 84 -84 -1 -5 7 -8 18 -8 11 0 20 -7 20 -15 0 -8 7 -15 15 -15 8 0 15
-9 15 -20 0 -11 7 -20 15 -20 8 0 15 -7 15 -15 0 -8 5 -15 10 -15 13 0 50 -37
50 -50 0 -5 9 -10 20 -10 11 0 20 -7 20 -15 0 -8 7 -15 15 -15 8 0 15 -9 15
-20 0 -11 3 -19 8 -18 9 3 87 -75 84 -84 -1 -5 7 -8 18 -8 11 0 20 -7 20 -15
0 -8 7 -15 15 -15 8 0 15 -9 15 -21 0 -12 4 -17 11 -14 6 4 13 -2 16 -14 3
-12 9 -21 14 -21 12 0 49 -38 49 -50 0 -5 9 -10 20 -10 11 0 20 -7 20 -15 0
-8 7 -15 15 -15 8 0 15 -9 15 -20 0 -11 4 -20 10 -20 12 0 85 -73 82 -82 -1
-5 7 -8 18 -8 11 0 20 -7 20 -15 0 -8 7 -15 15 -15 8 0 15 -9 15 -21 0 -11 5
-17 10 -14 13 8 31 -40 24 -60 -4 -8 -14 -15 -23 -16 -12 0 -12 -2 4 -9 17 -8
16 -9 -9 -9 -21 -1 -27 -5 -22 -16 3 -10 -3 -17 -20 -21 -18 -5 -22 -9 -13
-15 9 -5 5 -10 -14 -14 -15 -4 -27 -13 -27 -21 0 -8 -7 -14 -15 -14 -8 0 -15
-7 -15 -16 0 -9 -9 -18 -20 -21 -11 -3 -20 -11 -20 -17 0 -13 -35 -46 -49 -46
-5 0 -12 -12 -16 -27 -5 -21 -8 -24 -16 -12 -7 12 -9 11 -9 -3 0 -10 -7 -18
-15 -18 -8 0 -15 -4 -15 -10 0 -12 -37 -50 -49 -50 -5 0 -11 -9 -14 -20 -3
-11 -13 -20 -24 -20 -15 0 -16 -2 -3 -10 13 -8 12 -10 -2 -10 -10 0 -18 -6
-18 -14 0 -13 -20 -26 -37 -25 -4 0 -10 -9 -15 -20 -4 -12 -14 -21 -23 -21 -8
0 -15 -7 -15 -15 0 -9 -7 -18 -15 -21 -8 -3 -17 -15 -21 -26 -4 -15 -8 -17
-14 -8 -5 8 -10 2 -14 -16 -6 -22 -9 -25 -17 -13 -7 12 -9 11 -9 -3 0 -10 -7
-18 -15 -18 -8 0 -15 -7 -15 -15 0 -8 -4 -15 -10 -15 -5 0 -10 -7 -10 -15 0
-14 -12 -19 -32 -16 -5 0 -8 -6 -8 -14 0 -9 -10 -20 -22 -25 -13 -5 -17 -9
-10 -9 7 -1 -1 -14 -19 -31 -18 -16 -36 -27 -41 -24 -4 3 -8 0 -8 -7 0 -7 -18
-30 -40 -51 -22 -22 -40 -45 -40 -51 0 -7 -4 -6 -10 3 -8 13 -10 13 -10 -1 0
-20 -50 -75 -51 -57 0 7 -4 3 -9 -9 -5 -13 -17 -23 -25 -23 -9 0 -13 -4 -10
-10 3 -5 -1 -10 -9 -10 -9 0 -16 -7 -16 -16 0 -9 -9 -18 -21 -21 -15 -4 -17
-8 -8 -14 9 -5 5 -10 -14 -14 -15 -4 -27 -13 -27 -21 0 -8 -7 -14 -15 -14 -8
0 -15 -5 -15 -11 0 -12 -77 -89 -90 -89 -4 0 -11 -12 -15 -27 -5 -21 -8 -24
-16 -12 -7 12 -9 11 -9 -3 0 -10 -8 -18 -17 -18 -15 0 -16 -2 -3 -10 12 -7 8
-11 -17 -16 -18 -4 -33 -13 -33 -20 0 -9 -11 -14 -30 -14 -18 0 -33 -6 -36
-15 -9 -22 -172 -22 -180 0 -4 9 -19 15 -40 15 -24 0 -34 5 -34 15 0 8 -6 15
-14 15 -7 0 -16 9 -19 21 -3 12 -10 18 -16 15 -5 -3 -12 7 -16 24 -4 17 -10
28 -15 25 -9 -6 -20 18 -20 47 0 10 -7 26 -15 35 -20 20 -19 123 2 123 8 0 13
12 13 34 0 20 8 42 18 52 9 10 17 20 17 23 1 12 40 51 52 51 7 0 13 9 13 20 0
11 7 20 15 20 8 0 15 7 15 15 0 8 5 15 10 15 13 0 50 37 50 50 0 6 7 10 15 10
8 0 15 7 15 15 0 8 9 15 20 15 11 0 20 5 20 10 0 6 20 31 45 56 25 24 45 49
45 54 0 6 6 10 14 10 8 0 16 7 20 15 3 8 12 15 21 15 8 0 15 9 15 21 0 12 4
17 11 14 6 -4 13 2 16 14 3 12 9 21 14 21 12 0 49 38 49 50 0 6 7 10 15 10 8
0 15 7 15 15 0 8 9 15 20 15 11 0 20 5 20 10 0 6 20 31 45 56 25 24 45 49 45
54 0 6 6 10 14 10 8 0 16 7 20 15 3 8 12 15 21 15 8 0 15 9 15 21 0 12 4 17
11 14 6 -4 13 2 16 14 3 12 9 21 14 21 12 0 49 37 49 49 0 5 9 11 21 14 12 3
18 10 14 16 -3 7 2 11 14 11 12 0 21 6 21 14 0 8 7 16 15 20 8 3 15 10 15 16
0 5 -7 10 -15 10 -8 0 -15 7 -15 15 0 8 -7 15 -15 15 -8 0 -15 6 -15 13 0 15
-44 57 -59 57 -6 0 -11 7 -11 15 0 8 -7 15 -15 15 -8 0 -15 7 -15 15 0 8 -7
15 -15 15 -8 0 -15 9 -15 20 0 11 -7 20 -15 20 -8 0 -15 7 -15 15 0 9 -9 15
-21 15 -15 0 -19 5 -15 15 4 10 -1 15 -14 15 -11 0 -20 7 -20 15 0 8 -7 15
-15 15 -8 0 -15 7 -15 15 0 8 -7 15 -15 15 -8 0 -15 7 -15 15 0 8 -7 15 -15
15 -8 0 -15 7 -15 16 0 9 -9 18 -20 21 -11 3 -20 12 -20 19 0 8 -7 14 -15 14
-8 0 -15 7 -15 15 0 8 -7 15 -15 15 -8 0 -15 7 -15 15 0 8 -7 15 -15 15 -9 0
-15 9 -15 21 0 15 -5 19 -15 15 -10 -4 -15 1 -15 14 0 13 -7 20 -20 20 -13 0
-18 5 -14 15 4 10 0 15 -15 15 -12 0 -21 6 -21 15 0 8 -7 15 -15 15 -8 0 -15
7 -15 15 0 8 -7 15 -15 15 -8 0 -15 7 -15 15 0 8 -6 15 -14 15 -7 0 -16 9 -19
20 -3 11 -12 20 -21 20 -9 0 -16 7 -16 15 0 8 -7 15 -15 15 -8 0 -15 7 -15 15
0 8 -7 15 -15 15 -8 0 -15 7 -15 15 0 8 -7 15 -15 15 -9 0 -15 9 -15 21 0 15
-5 19 -15 15 -9 -3 -15 0 -15 10 0 9 -9 18 -19 21 -12 3 -17 11 -14 19 3 9 -2
14 -16 14 -17 0 -21 6 -21 29 0 16 -6 31 -15 35 -12 4 -15 27 -15 116 0 89 3
112 15 116 8 4 15 14 15 25 0 10 6 22 13 26 8 4 16 16 20 26 3 9 14 17 22 17
9 0 13 5 10 10 -3 6 2 13 12 17 10 4 24 13 31 20 7 7 29 13 48 13 22 0 37 6
40 15 4 11 21 15 55 15 37 0 49 -4 49 -15z"/>
<path d="M0 4135 c0 -14 5 -25 10 -25 6 0 10 11 10 25 0 14 -4 25 -10 25 -5 0
-10 -11 -10 -25z"/>
<path d="M1 3875 c1 -36 6 -65 10 -65 5 0 9 29 9 65 0 38 -4 65 -10 65 -7 0
-10 -26 -9 -65z"/>
</g>
</svg>
