<svg width="48" height="48" viewBox="0 0 48 48" fill="none" xmlns="http://www.w3.org/2000/svg">
<circle cx="24" cy="24" r="23" stroke="#EC594D" stroke-width="2"/>
<path fill-rule="evenodd" clip-rule="evenodd" d="M22.2521 12.8701C23.4779 11.6727 25.1405 11 26.874 11H30.3228C30.7582 11 31.1111 11.3448 31.1111 11.7701V16.262C31.1111 16.6873 30.7582 17.0321 30.3228 17.0321H26.874C26.7782 17.0321 26.6863 17.0693 26.6185 17.1355C26.5508 17.2017 26.5127 17.2914 26.5127 17.385V19.984H30.3228C30.5655 19.984 30.7948 20.0932 30.9441 20.2801C31.0935 20.467 31.1464 20.7107 31.0876 20.9408L29.938 25.4328C29.8502 25.7756 29.5349 26.016 29.1732 26.016H26.5127V34.2299C26.5127 34.6552 26.1598 35 25.7244 35H21.126C20.6906 35 20.3377 34.6552 20.3377 34.2299V26.016H17.6772C17.2418 26.016 16.8889 25.6713 16.8889 25.246V20.754C16.8889 20.3287 17.2418 19.984 17.6772 19.984H20.3377V17.385C20.3377 15.6916 21.0263 14.0676 22.2521 12.8701ZM26.874 12.5401C25.5586 12.5401 24.2971 13.0506 23.367 13.9592C22.4368 14.8678 21.9143 16.1001 21.9143 17.385V20.754C21.9143 21.1793 21.5614 21.5241 21.126 21.5241H18.4655V24.4759H21.126C21.5614 24.4759 21.9143 24.8207 21.9143 25.246V33.4599H24.9361V25.246C24.9361 24.8207 25.289 24.4759 25.7244 24.4759H28.5577L29.3132 21.5241H25.7244C25.289 21.5241 24.9361 21.1793 24.9361 20.754V17.385C24.9361 16.883 25.1403 16.4015 25.5037 16.0464C25.8671 15.6914 26.36 15.492 26.874 15.492H29.5345V12.5401H26.874Z" fill="black"/>
</svg>
