<svg width="48" height="48" viewBox="0 0 48 48" fill="none" xmlns="http://www.w3.org/2000/svg">
<path fill-rule="evenodd" clip-rule="evenodd" d="M16.7273 17.6363C16.2294 17.6363 15.8182 18.0475 15.8182 18.5454V29.4545C15.8182 29.9524 16.2294 30.3636 16.7273 30.3636H31.2728C31.7707 30.3636 32.1819 29.9524 32.1819 29.4545V18.5454C32.1819 18.0475 31.7707 17.6363 31.2728 17.6363H16.7273ZM14 18.5454C14 17.0433 15.2252 15.8181 16.7273 15.8181H31.2728C32.7749 15.8181 34.0001 17.0433 34.0001 18.5454V29.4545C34.0001 30.9566 32.7749 32.1818 31.2728 32.1818H16.7273C15.2252 32.1818 14 30.9566 14 29.4545V18.5454Z" fill="black"/>
<path fill-rule="evenodd" clip-rule="evenodd" d="M14.1643 18.0241C14.4522 17.6128 15.0191 17.5127 15.4304 17.8006L24 23.7994L32.5696 17.8006C32.9809 17.5127 33.5477 17.6128 33.8356 18.0241C34.1236 18.4354 34.0235 19.0022 33.6122 19.2902L24.5213 25.6538C24.2083 25.8729 23.7917 25.8729 23.4786 25.6538L14.3877 19.2902C13.9764 19.0022 13.8764 18.4354 14.1643 18.0241Z" fill="black"/>
<circle cx="24" cy="24" r="23" stroke="#EC594D" stroke-width="2"/>
</svg>
