<svg width="48" height="48" viewBox="0 0 48 48" fill="none" xmlns="http://www.w3.org/2000/svg">
<circle cx="24" cy="24" r="23" stroke="#EC594D" stroke-width="2"/>
<path d="M37.9369 17.1775C37.8697 17.0176 37.7567 16.8812 37.612 16.7854C37.4674 16.6896 37.2976 16.6388 37.1241 16.6393H33.7851C33.3844 15.9403 32.8282 15.3428 32.1595 14.8932C31.4908 14.4436 30.7276 14.154 29.929 14.0467C29.1304 13.9395 28.3179 14.0175 27.5542 14.2747C26.7906 14.5319 26.0964 14.9614 25.5255 15.53C25.0256 16.0174 24.6282 16.5998 24.3566 17.243C24.0849 17.8862 23.9446 18.5772 23.9439 19.2754V19.9454C19.4735 18.7811 15.816 15.1785 15.7831 15.1346C15.6682 15.0216 15.5244 14.9423 15.3675 14.9055C15.2106 14.8687 15.0466 14.8758 14.8934 14.9259C14.7407 14.9745 14.604 15.0634 14.4977 15.1833C14.3913 15.3032 14.3193 15.4495 14.2893 15.6069C13.3337 20.901 14.9263 24.4487 16.4311 26.4916C17.1858 27.5247 18.1019 28.4295 19.144 29.1716C17.4636 31.0718 14.8714 32.0603 14.8495 32.0713C14.7255 32.1172 14.6135 32.1906 14.5219 32.2859C14.4302 32.3811 14.3612 32.4958 14.32 32.6215C14.2788 32.7471 14.2665 32.8804 14.2841 33.0114C14.3016 33.1425 14.3484 33.2679 14.4211 33.3783C14.509 33.5101 14.8385 33.9385 15.6403 34.3449C16.6398 34.8391 17.9578 35.0918 19.5504 35.0918C27.2938 35.0918 33.7742 29.1277 34.4332 21.4502L37.7502 18.1441C37.8694 18.0171 37.9502 17.8589 37.9833 17.6878C38.0163 17.5168 38.0002 17.3398 37.9369 17.1775ZM32.9614 20.4397C32.8083 20.5915 32.7181 20.7954 32.7087 21.0108C32.2584 27.9195 26.4811 33.3344 19.5504 33.3344C18.3862 33.3344 17.5734 33.1806 17.0022 32.9939C18.2654 32.3129 20.0227 31.1267 21.165 29.4242C21.2313 29.3212 21.2753 29.2054 21.2943 29.0844C21.3132 28.9633 21.3066 28.8396 21.2748 28.7213C21.2429 28.6017 21.1863 28.4902 21.1088 28.3937C21.0312 28.2972 20.9344 28.218 20.8245 28.1611C20.8135 28.1501 19.188 27.3044 17.7931 25.3823C16.2114 23.2075 15.5414 20.5605 15.805 17.5071C17.5404 18.9349 20.8575 21.2634 24.6798 21.9005C24.806 21.9208 24.9351 21.9136 25.0583 21.8795C25.1815 21.8454 25.2959 21.7851 25.3937 21.7028C25.4893 21.6191 25.5661 21.5162 25.6192 21.4007C25.6722 21.2852 25.7001 21.1598 25.7012 21.0328V19.2754C25.7029 18.4692 25.9816 17.6881 26.4907 17.063C26.9998 16.4379 27.7084 16.0068 28.4976 15.842C29.2867 15.6772 30.1086 15.7887 30.8253 16.1579C31.542 16.527 32.11 17.1313 32.4342 17.8695C32.5042 18.0265 32.6183 18.1599 32.7625 18.2534C32.9067 18.347 33.075 18.3968 33.2469 18.3967H35.0043L32.9614 20.4397Z" fill="black"/>
</svg>
