<svg width="48" height="65" viewBox="0 0 48 65" fill="none" xmlns="http://www.w3.org/2000/svg">
<path d="M20.8372 56H23.3581V61.1592C23.3581 62.3169 22.9671 63.2465 22.1853 63.9479C21.4124 64.6493 20.3968 65 19.1386 65C17.8804 65 16.8738 64.662 16.1189 63.9859C15.373 63.3099 15 62.393 15 61.2352V56H17.6018V61.1338C17.6018 61.6408 17.7456 62.0423 18.0332 62.338C18.3297 62.6338 18.7252 62.7817 19.2195 62.7817C19.7138 62.7817 20.1047 62.6338 20.3923 62.338C20.6889 62.0423 20.8372 61.6408 20.8372 61.1338V56Z" fill="black"/>
<path d="M25.1137 64.8732V56H29.3332C30.4387 56 31.3239 56.2831 31.9889 56.8493C32.663 57.4155 33 58.1676 33 59.1056C33 60.0352 32.6495 60.7958 31.9485 61.3873C31.2565 61.9789 30.3578 62.2746 29.2523 62.2746H27.6751V64.8732H25.1137ZM27.6751 58.0282V60.3099H29.0906C29.495 60.3099 29.8185 60.2042 30.0612 59.993C30.3128 59.7817 30.4387 59.507 30.4387 59.169C30.4387 58.831 30.3128 58.5563 30.0612 58.3451C29.8185 58.1338 29.495 58.0282 29.0906 58.0282H27.6751Z" fill="black"/>
<circle cx="24" cy="24" r="23" stroke="#EC594D" stroke-width="2"/>
<path fill-rule="evenodd" clip-rule="evenodd" d="M15.358 20.6148L23.1358 12.379C23.6131 11.8737 24.3869 11.8737 24.8642 12.379L32.642 20.6148C33.1193 21.1201 33.1193 21.9395 32.642 22.4449C32.1647 22.9503 31.3909 22.9503 30.9136 22.4449L25.2222 16.4184L25.2222 34L22.7778 34L22.7778 16.4184L17.0864 22.4449C16.6091 22.9503 15.8353 22.9503 15.358 22.4449C14.8807 21.9395 14.8807 21.1201 15.358 20.6148Z" fill="black"/>
</svg>
