<svg xmlns="http://www.w3.org/2000/svg" viewBox="0 0 512 512"><path fill="#eee" d="M315.36 4.64A16.001 16.001 0 00304 0H48C21.49 0 0 21.491 0 48v416c0 26.51 21.49 48 48 48h112v-32H48c-8.837 0-16-7.163-16-16V48c0-8.837 7.163-16 16-16h240v64c0 17.673 14.327 32 32 32h64v48h32v-64a15.997 15.997 0 00-4.64-11.36l-96-96z"/><path fill="#eee" d="M176 288h32v128h32V288h32v-32h-96zm-48 32H96v-64H64v160h32v-64h32v64h32V256h-32zm278.08-62.72a16 16 0 00-17.44 3.52L352 297.44l-36.64-36.64c-6.223-6.274-16.353-6.316-22.627-.093A16 16 0 00288 272v144h32V310.56l20.64 20.64c6.241 6.204 16.319 6.204 22.56 0l20.8-20.64V416h32V272a16 16 0 00-9.92-14.72zM464 384V256h-32v144c0 8.837 7.163 16 16 16h64v-32h-48z"/></svg>