<svg viewBox="0 0 512 512" xmlns="http://www.w3.org/2000/svg"><path fill="#333" d="M343.905 190.647c0-8.767-7.129-15.898-15.891-15.898h-46.177c-4.143 0-7.5 3.357-7.5 7.5s3.357 7.5 7.5 7.5h46.177c.475 0 .891.42.891.898v46.188c0 4.143 3.357 7.5 7.5 7.5s7.5-3.357 7.5-7.5zM127.616 368.932c0 8.766 7.128 15.897 15.891 15.897h46.148c4.142 0 7.5-3.357 7.5-7.5s-3.358-7.5-7.5-7.5h-46.148a.917.917 0 01-.891-.897v-46.217c0-4.143-3.358-7.5-7.5-7.5s-7.5 3.357-7.5 7.5zm7.5-124.597a7.5 7.5 0 007.5-7.5v-46.188c0-.479.416-.898.891-.898h46.148c4.142 0 7.5-3.357 7.5-7.5s-3.358-7.5-7.5-7.5h-46.148c-8.762 0-15.891 7.132-15.891 15.898v46.188a7.5 7.5 0 007.5 7.5zm201.289 70.88a7.499 7.499 0 00-7.5 7.5v46.217a.916.916 0 01-.891.897h-46.177c-4.143 0-7.5 3.357-7.5 7.5s3.357 7.5 7.5 7.5h46.177c8.762 0 15.891-7.132 15.891-15.897v-46.217c0-4.143-3.357-7.5-7.5-7.5zM280.097 85.248c0-4.143-3.357-7.5-7.5-7.5H54.867c-4.142 0-7.5 3.357-7.5 7.5s3.358 7.5 7.5 7.5h217.729a7.5 7.5 0 007.501-7.5zm54.893 5.332l.028-.028c2.929-2.93 2.914-7.664-.015-10.593s-7.69-2.913-10.621.014A7.5 7.5 0 10334.99 90.58zm37.786 0l.028-.028c2.929-2.93 2.914-7.664-.015-10.593s-7.69-2.913-10.621.014a7.5 7.5 0 1010.608 10.607zm37.787 0l.028-.028c2.929-2.93 2.914-7.664-.015-10.593s-7.69-2.913-10.621.014a7.5 7.5 0 1010.608 10.607z"/><path fill="#333" d="M471.521 337.403V47.628c0-7.515-6.111-13.628-13.623-13.628H13.623C6.111 34 0 40.113 0 47.628v376.769c0 7.515 6.111 13.629 13.623 13.629h205.71c4.142 0 7.5-3.357 7.5-7.5s-3.358-7.5-7.5-7.5H15v-286.5h204.74c4.04 0 7.314-3.357 7.314-7.5s-3.275-7.5-7.314-7.5H15V49h441.521v72.525H252.14c-4.04 0-7.314 3.357-7.314 7.5s3.275 7.5 7.314 7.5h204.382v195.11a74.142 74.142 0 00-18.862-2.433c-40.992 0-74.342 33.375-74.342 74.398 0 6.72.91 13.228 2.587 19.425H253.973c-4.142 0-7.5 3.357-7.5 7.5s3.358 7.5 7.5 7.5h117.813C384.221 461.761 409.074 478 437.659 478 478.65 478 512 444.625 512 403.601c0-28.821-16.472-53.849-40.479-66.198zM437.659 463c-32.721 0-59.342-26.646-59.342-59.399 0-32.752 26.621-59.398 59.342-59.398S497 370.849 497 403.601C497 436.354 470.38 463 437.659 463z"/><path fill="#333" d="M467.316 378.645a7.497 7.497 0 00-10.575.81L428.564 412.3l-10.835-9.263a7.5 7.5 0 10-9.748 11.4l16.526 14.129a7.466 7.466 0 004.87 1.8 7.483 7.483 0 005.696-2.617l33.052-38.528a7.498 7.498 0 00-.809-10.576zm-163.207-66.812l-.003-67.564c0-.361-.034-.713-.083-1.06-.005-.043-.013-.085-.02-.128a7.273 7.273 0 00-.128-.628c-.535-2.417-2.115-4.549-4.528-5.928l-57.815-32.195c-3.506-1.958-8.036-1.961-11.541-.001l-57.827 32.201c-3.181 2.094-4.764 4.725-4.75 7.891v66.463l-.003.949c-.024 4.814.432 8.765 6.436 12.13 18.706 10.41 37.44 20.85 56.147 31.289l.115.063c1.717.919 3.684 1.378 5.651 1.378s3.934-.459 5.65-1.377l.117-.064c18.705-10.438 37.41-20.877 56.167-31.301 5.984-3.354 6.441-7.304 6.415-12.118zm-75.862 25.27a52906.662 52906.662 0 00-45.834-25.539l.002-53.871 45.833 25.544v53.866zm7.514-66.851l-46.641-25.995 46.641-25.973 46.642 25.973zm7.486 66.869v-53.869l45.86-25.56v53.192l.002.679c-15.303 8.504-30.582 17.031-45.862 25.558z"/></svg>