<?xml version="1.0" standalone="no"?>
<!DOCTYPE svg PUBLIC "-//W3C//DTD SVG 20010904//EN"
 "http://www.w3.org/TR/2001/REC-SVG-20010904/DTD/svg10.dtd">
<svg version="1.0" xmlns="http://www.w3.org/2000/svg"
 width="512.000000pt" height="512.000000pt" viewBox="0 0 512.000000 512.000000"
 preserveAspectRatio="xMidYMid meet">
<metadata>
Created by potrace 1.11, written by Peter Selinger 2001-2013
</metadata>
<g transform="translate(0.000000,512.000000) scale(0.100000,-0.100000)"
fill="#000000" stroke="none">
<path d="M2425 4729 c-55 -22 -122 -48 -150 -58 -56 -20 -1243 -471 -1400
-532 -55 -21 -181 -69 -280 -107 -201 -76 -188 -65 -269 -214 -88 -165 -111
-205 -133 -240 -13 -21 -23 -39 -23 -41 0 -2 -36 -69 -81 -148 -123 -218 -117
-241 74 -315 67 -26 151 -59 187 -73 l65 -27 0 -881 c0 -878 0 -882 21 -910
17 -22 88 -55 355 -164 184 -76 350 -144 369 -153 19 -8 98 -40 175 -71 184
-75 495 -203 520 -215 115 -53 548 -224 575 -227 27 -3 132 32 455 152 231 86
474 176 540 200 66 24 163 61 215 80 52 20 100 38 105 39 6 2 23 8 38 14 16 7
30 12 33 12 6 0 540 198 569 211 11 5 63 24 115 43 126 45 142 53 164 83 19
25 19 55 19 904 l0 878 189 72 c184 71 236 101 239 138 4 44 -3 74 -29 118
-16 26 -46 80 -67 118 -21 39 -72 131 -113 205 -41 74 -83 149 -92 165 -74
134 -92 164 -103 173 -7 6 -125 53 -262 105 -138 52 -560 213 -940 357 -379
145 -717 273 -750 285 -33 13 -85 32 -115 44 -74 28 -99 26 -215 -20z m611
-359 c260 -99 484 -184 496 -190 13 -5 97 -36 188 -70 91 -33 174 -65 185 -70
22 -10 81 -32 275 -105 69 -26 129 -50 133 -55 7 -6 -108 -52 -163 -65 -3 -1
-18 -7 -35 -14 -16 -7 -61 -23 -100 -36 -38 -13 -113 -40 -165 -59 -248 -90
-947 -341 -990 -356 -14 -4 -112 -40 -219 -79 l-193 -70 -67 25 c-36 13 -75
29 -86 34 -11 5 -45 19 -75 30 -30 11 -64 25 -75 30 -20 8 -105 42 -800 316
-187 74 -349 139 -360 144 -11 5 -65 27 -120 49 -99 39 -100 40 -70 51 17 6
417 159 890 339 473 181 864 329 869 330 4 1 221 -80 482 -179z m1642 -785
c136 -243 174 -316 169 -322 -3 -2 -286 -112 -629 -244 -342 -132 -650 -250
-683 -263 -228 -90 -563 -216 -572 -216 -5 0 -37 38 -69 85 -33 47 -110 158
-172 247 -75 107 -109 164 -100 167 7 2 63 22 123 43 61 22 164 59 230 83 66
23 266 95 445 160 179 64 451 162 605 217 327 117 457 164 505 183 19 8 41 13
49 12 8 -1 53 -70 99 -152z m-4106 130 c29 -13 655 -262 1437 -571 146 -58
268 -107 273 -110 4 -3 -5 -29 -21 -57 -15 -29 -59 -108 -96 -177 -89 -165
-116 -214 -120 -218 -2 -2 -25 6 -52 17 -51 21 -486 189 -588 226 -49 19 -443
170 -940 362 -179 69 -195 75 -195 81 0 6 52 102 185 340 38 67 72 122 76 122
5 0 23 -7 41 -15z m784 -1100 c393 -151 728 -275 744 -275 41 0 83 40 123 118
72 137 102 191 105 187 5 -4 4 -2017 -1 -2021 -2 -2 -71 23 -153 57 -642 263
-1104 452 -1129 463 -16 8 -117 49 -222 92 l-193 78 0 353 c-1 455 -1 1200 0
1213 0 6 2 10 5 10 3 0 327 -124 721 -275z m3111 -516 l-2 -781 -485 -179
c-267 -98 -507 -188 -535 -198 -27 -11 -138 -52 -245 -91 -107 -39 -204 -75
-215 -80 -54 -23 -430 -159 -432 -156 -2 1 -2 480 -1 1063 l3 1061 140 -203
c77 -112 152 -210 167 -219 14 -9 39 -16 55 -16 22 0 280 91 368 131 11 5 63
25 115 44 52 20 102 38 110 42 8 3 17 7 20 8 3 1 14 5 25 10 11 4 207 80 435
167 228 87 424 163 435 168 11 5 25 9 32 9 8 1 11 -192 10 -780z"/>
</g>
</svg>
